<svg id="Layer_1" xmlns="http://www.w3.org/2000/svg" version="1.1" xmlns:xlink="http://www.w3.org/1999/xlink" viewBox="47.42 12.28 56.73 79.92">
  <!-- Generator: Adobe Illustrator 29.5.1, SVG Export Plug-In . SVG Version: 2.1.0 Build 141)  -->
  <defs>
    <style>
      .st0 {
        fill: url(#linear-gradient2);
      }

      .st1 {
        fill: url(#linear-gradient10);
      }

      .st2 {
        fill: #fff;
      }

      .st3 {
        fill: url(#linear-gradient1);
      }

      .st4 {
        fill: url(#linear-gradient9);
      }

      .st5 {
        fill: url(#linear-gradient8);
      }

      .st6 {
        fill: url(#linear-gradient11);
      }

      .st7 {
        fill: none;
      }

      .st8 {
        fill: url(#linear-gradient16);
      }

      .st9 {
        fill: url(#linear-gradient12);
      }

      .st10 {
        fill: url(#linear-gradient7);
      }

      .st11 {
        fill: url(#linear-gradient4);
      }

      .st12 {
        fill: url(#linear-gradient14);
      }

      .st13 {
        fill: url(#linear-gradient5);
      }

      .st14 {
        fill: url(#linear-gradient3);
      }

      .st15 {
        fill: url(#linear-gradient15);
      }

      .st16 {
        fill: url(#linear-gradient6);
      }

      .st17 {
        fill: url(#linear-gradient13);
      }

      .st18 {
        fill: url(#linear-gradient);
      }

      .st19 {
        fill: #b6ada2;
      }
    </style>
    <linearGradient id="linear-gradient" x1="53.33" y1="79.58" x2="97.73" y2="79.58" gradientUnits="userSpaceOnUse">
      <stop offset="0" stop-color="#fce1eb"/>
      <stop offset=".52" stop-color="#ea4094"/>
      <stop offset="1" stop-color="#9e1b37"/>
    </linearGradient>
    <linearGradient id="linear-gradient1" y1="71.57" y2="71.57" xlink:href="#linear-gradient"/>
    <linearGradient id="linear-gradient2" y1="74.48" y2="74.48" xlink:href="#linear-gradient"/>
    <linearGradient id="linear-gradient3" y1="55.51" y2="55.51" xlink:href="#linear-gradient"/>
    <linearGradient id="linear-gradient4" y1="63.45" y2="63.45" xlink:href="#linear-gradient"/>
    <linearGradient id="linear-gradient5" y1="77.39" y2="77.39" xlink:href="#linear-gradient"/>
    <linearGradient id="linear-gradient6" y1="26.17" y2="26.17" xlink:href="#linear-gradient"/>
    <linearGradient id="linear-gradient7" y1="24.3" y2="24.3" xlink:href="#linear-gradient"/>
    <linearGradient id="linear-gradient8" y1="52.6" y2="52.6" xlink:href="#linear-gradient"/>
    <linearGradient id="linear-gradient9" y1="49.61" y2="49.61" xlink:href="#linear-gradient"/>
    <linearGradient id="linear-gradient10" y1="21.8" y2="21.8" xlink:href="#linear-gradient"/>
    <linearGradient id="linear-gradient11" y1="30.54" y2="30.54" xlink:href="#linear-gradient"/>
    <linearGradient id="linear-gradient12" y1="55.12" y2="55.12" xlink:href="#linear-gradient"/>
    <linearGradient id="linear-gradient13" y1="49.64" y2="49.64" xlink:href="#linear-gradient"/>
    <linearGradient id="linear-gradient14" y1="68.36" y2="68.36" xlink:href="#linear-gradient"/>
    <linearGradient id="linear-gradient15" y1="53.7" y2="53.7" xlink:href="#linear-gradient"/>
    <linearGradient id="linear-gradient16" y1="52.61" y2="52.61" xlink:href="#linear-gradient"/>
  </defs>
  <path class="st7" d="M48.77,81.46s.04,0,.06,0v-.07s-.04.05-.06.07Z"/>
  <path class="st7" d="M48.53,59.29c.12-.07.23-.08.3-.04v-.58c-.21.21-.32.44-.3.62Z"/>
  <path class="st7" d="M48.53,81.17c.12-.07.23-.08.3-.04v-.58c-.21.21-.32.44-.3.62Z"/>
  <path class="st7" d="M48.77,59.58s.04,0,.06,0v-.07s-.04.05-.06.07Z"/>
  <polygon class="st7" points="102.23 45.07 102.23 45.07 102.4 44.95 102.23 44.91 102.23 45.07 102.23 45.07 102.23 45.07"/>
  <polygon class="st2" points="63.91 87.96 52.83 87.96 52.83 88.14 63.91 88.14 64.09 71.44 64.09 71.44 63.91 87.96"/>
  <polygon class="st2" points="64.11 70.08 64.11 70.08 64.35 49.27 64.34 49.28 64.11 70.08"/>
  <polygon class="st2" points="64.46 38.7 64.36 48.21 64.36 48.21 64.46 38.88 70 41.92 70 41.74 64.46 38.7"/>
  <path class="st2" d="M87.29,38.8l-5.69,2.48-.53,46.68h-11.07v.18h11.07l.53-46.68,5.69-2.48c.04.31.06,3.11.06,7.24,0-4.23-.02-7.11-.06-7.42Z"/>
  <path class="st2" d="M87.16,88.14h11.07v-.18h-11.07c0,.11,0,.18,0,.18Z"/>
  <path d="M51.44,79.14l.41-.28.48-.33c-.06-.29.13-.68.5-1.02v-20.49c-.09,0-.18-.02-.25-.05l-.5.35-.43.3c.02.24-.1.52-.34.79l-2.4,1.57s-.06.02-.09.02v20.25l1.19-.83c.53-.37,1.11-.46,1.42-.27Z"/>
  <path d="M51.44,57.26l.41-.28.48-.33c-.06-.29.13-.68.5-1.02V18.77l.48.25.13-.25.16.39h0s0,0,0,0h0s22.21,11.58,22.21,11.58l22.42-11.97v29.17l.39-.27c-.07-.35.21-.86.74-1.23l1.26-.87c.5-.34,1.03-.45,1.35-.31l.26-.18v-.16h0s0-.22,0-.22h0s0-25.74,0-25.74v-6.67l-5.88,3.14-20.56,10.98-21.1-11-5.85-3.05v46.01l1.19-.83c.53-.37,1.11-.46,1.42-.27Z"/>
  <path d="M102.23,45.83c-.07.32-.33.68-.74.97l-1.26.87c-.5.35-1.04.45-1.37.31l-.5.35-.14.1v39.72h-11.07s0-.07,0-.18h0s.12-17.38.17-31.48l-.74.48c-.2.05-.39.07-.55.03-.18.07-.3.18-.32.32-.04.25.26.51.68.63l-.27.19c-.48-.12-.84-.37-.97-.64l-.06.04v-.49s.11-.08.11-.08l.48-.33c-.07-.35.21-.86.74-1.23l.9-.62c.01-3.15.02-6.09.02-8.57,0-4.13-.02-6.94-.06-7.24l-5.69,2.48-.53,46.68h-11.07v-.18h0v-46.04l-5.53-3.04-.11,9.33.38-.26-.17-.04v-.22s.23.05.23.05c.07.02.14.02.21.03l.16-.11c.15-.1.32-.12.37-.04l.02.03s0,.05,0,.07c.16-.06.29-.15.31-.28.07-.29-.31-.63-.84-.75l-.46-.11v-.22s.72.17.72.17c.74.18,1.26.65,1.17,1.06-.08.34-.57.51-1.16.46l-.33.23.04.06-.43.3c.02.19-.07.42-.24.65l-.24,20.8c.07,0,.14.02.19.04l.26-.18h0l.17-.12-.17-.04v-.22s.23.05.23.05c.07.02.14.02.21.03l.16-.11c.15-.1.32-.12.37-.04l.02.03s0,.05,0,.07c.16-.06.29-.15.31-.28.07-.29-.31-.63-.84-.75l-.46-.11v-.22s.72.17.72.17c.74.18,1.26.65,1.17,1.06-.08.34-.57.51-1.16.46l-.33.23.04.06-.43.3c.02.28-.16.62-.49.93l-.19,16.71h-11.07v-9.25c-.09,0-.18-.02-.25-.05l-.5.35-.43.3c.02.24-.1.52-.34.79l-2.4,1.57s-.06.02-.09.02v10.28h53.39v-46.31Z"/>
  <path d="M100.56,45.87l-.9.62c-.36.25-.56.58-.54.83.14-.09.29-.1.34-.03l.02.03c.05.07-.01.19-.13.29.23.07.59-.02.92-.25l.9-.62c.32-.22.52-.52.54-.76h-.01c-.15.11-.32.13-.37.05l-.02-.03c-.06-.08.02-.23.17-.33l.04-.03c-.23-.1-.61-.02-.97.22Z"/>
  <path d="M52.83,56.28v-.05s0,.03,0,.05Z"/>
  <path d="M52.83,78.15v-.05s0,.03,0,.05Z"/>
  <path d="M86.74,55.46c-.36.25-.56.58-.54.83.14-.09.29-.1.34-.03l.02.03c.05.07-.01.19-.13.29.23.07.57-.02.89-.23,0-.44,0-.88,0-1.31l-.59.41Z"/>
  <path d="M50.76,79.88l-.02-.03c-.06-.08.02-.23.17-.33l.04-.03c-.23-.1-.61-.02-.97.22l-.9.62c-.09.06-.17.14-.24.21v.58s.03,0,.04.01l.02.03c.04.06,0,.14-.06.22v.07c.23.04.56-.04.86-.25l.9-.62c.32-.22.52-.52.55-.76h-.01c-.15.11-.32.13-.37.05Z"/>
  <path d="M50.76,58l-.02-.03c-.06-.08.02-.23.17-.33l.04-.03c-.23-.1-.61-.02-.97.22l-.9.62c-.09.06-.17.14-.24.21v.58s.03,0,.04.01l.02.03c.04.06,0,.14-.06.22v.07c.23.04.56-.04.86-.25l.9-.62c.32-.22.52-.52.55-.76h-.01c-.15.11-.32.13-.37.05Z"/>
  <path class="st2" d="M60.27,73.5c.03.35-.25.82-.76,1.17l-1.26.87c-.5.35-1.04.45-1.37.31l-.5.35-.43.3c.03.35-.25.82-.76,1.17l-1.26.87s-.08.04-.12.06v8.37h9.08l.17-14.78-.52.36c-.5.35-1.04.45-1.37.31l-.5.35-.43.3Z"/>
  <path class="st18" d="M60.27,73.5c.03.35-.25.82-.76,1.17l-1.26.87c-.5.35-1.04.45-1.37.31l-.5.35-.43.3c.03.35-.25.82-.76,1.17l-1.26.87s-.08.04-.12.06v8.37h9.08l.17-14.78-.52.36c-.5.35-1.04.45-1.37.31l-.5.35-.43.3Z"/>
  <path class="st2" d="M61.8,72.17l.02.03c.05.07-.01.19-.13.29.23.07.59-.02.92-.25l.47-.32v-1.29c-.05.04-.12.06-.19.11l-.9.62c-.36.25-.56.58-.54.83.14-.09.29-.1.34-.03Z"/>
  <path class="st3" d="M61.8,72.17l.02.03c.05.07-.01.19-.13.29.23.07.59-.02.92-.25l.47-.32v-1.29c-.05.04-.12.06-.19.11l-.9.62c-.36.25-.56.58-.54.83.14-.09.29-.1.34-.03Z"/>
  <path class="st2" d="M58.31,75.24l.9-.62c.32-.22.52-.52.55-.76h-.01c-.15.11-.32.13-.37.05l-.02-.03c-.06-.08.02-.23.17-.33l.04-.03c-.23-.1-.61-.02-.97.22l-.9.62c-.36.25-.56.58-.54.83.14-.09.29-.1.34-.03l.02.03c.05.07-.01.19-.13.29.23.07.59-.02.92-.25Z"/>
  <path class="st0" d="M58.31,75.24l.9-.62c.32-.22.52-.52.55-.76h-.01c-.15.11-.32.13-.37.05l-.02-.03c-.06-.08.02-.23.17-.33l.04-.03c-.23-.1-.61-.02-.97.22l-.9.62c-.36.25-.56.58-.54.83.14-.09.29-.1.34-.03l.02.03c.05.07-.01.19-.13.29.23.07.59-.02.92-.25Z"/>
  <path class="st2" d="M55.06,55.01l-.02-.03c-.06-.08.02-.23.17-.33l.04-.03c-.23-.1-.61-.02-.97.22l-.45.31v1.29c.06-.03.11-.05.17-.09l.9-.62c.32-.22.52-.52.54-.76h-.01c-.15.11-.32.13-.37.05Z"/>
  <path class="st14" d="M55.06,55.01l-.02-.03c-.06-.08.02-.23.17-.33l.04-.03c-.23-.1-.61-.02-.97.22l-.45.31v1.29c.06-.03.11-.05.17-.09l.9-.62c.32-.22.52-.52.54-.76h-.01c-.15.11-.32.13-.37.05Z"/>
  <path class="st2" d="M60.27,51.62c.03.35-.25.82-.76,1.17l-1.26.87c-.5.35-1.04.45-1.37.31l-.5.35-.43.3c.03.35-.25.82-.76,1.17l-1.26.87s-.08.04-.12.06v20.05l.5-.35c.53-.37,1.11-.46,1.42-.27l.41-.28.48-.33c-.07-.35.21-.86.74-1.23l1.26-.87c.53-.37,1.11-.46,1.42-.27l.41-.28.48-.33c-.07-.35.21-.86.74-1.23l1.26-.87c.05-.04.1-.05.15-.08l.23-20.22-.77.53c-.5.35-1.04.45-1.37.31l-.5.35-.43.3Z"/>
  <path class="st11" d="M60.27,51.62c.03.35-.25.82-.76,1.17l-1.26.87c-.5.35-1.04.45-1.37.31l-.5.35-.43.3c.03.35-.25.82-.76,1.17l-1.26.87s-.08.04-.12.06v20.05l.5-.35c.53-.37,1.11-.46,1.42-.27l.41-.28.48-.33c-.07-.35.21-.86.74-1.23l1.26-.87c.53-.37,1.11-.46,1.42-.27l.41-.28.48-.33c-.07-.35.21-.86.74-1.23l1.26-.87c.05-.04.1-.05.15-.08l.23-20.22-.77.53c-.5.35-1.04.45-1.37.31l-.5.35-.43.3Z"/>
  <path class="st2" d="M55.06,76.89l-.02-.03c-.06-.08.02-.23.17-.33l.04-.03c-.23-.1-.61-.02-.97.22l-.45.31v1.29c.06-.03.11-.05.17-.09l.9-.62c.32-.22.52-.52.54-.76h-.01c-.15.11-.32.13-.37.05Z"/>
  <path class="st13" d="M55.06,76.89l-.02-.03c-.06-.08.02-.23.17-.33l.04-.03c-.23-.1-.61-.02-.97.22l-.45.31v1.29c.06-.03.11-.05.17-.09l.9-.62c.32-.22.52-.52.54-.76h-.01c-.15.11-.32.13-.37.05Z"/>
  <path class="st2" d="M54.41,27.1h.04c.1-.02.19.09.21.24v.04c.2-.14.32-.46.27-.82l-.12-.91c-.05-.36-.24-.64-.47-.72,0,.14-.05.26-.14.27h-.04c-.09.02-.16-.08-.2-.2-.05.05-.1.11-.14.18v1.28l.03.24c.04.33.21.59.4.69h0c-.02-.16.04-.3.14-.31Z"/>
  <path class="st16" d="M54.41,27.1h.04c.1-.02.19.09.21.24v.04c.2-.14.32-.46.27-.82l-.12-.91c-.05-.36-.24-.64-.47-.72,0,.14-.05.26-.14.27h-.04c-.09.02-.16-.08-.2-.2-.05.05-.1.11-.14.18v1.28l.03.24c.04.33.21.59.4.69h0c-.02-.16.04-.3.14-.31Z"/>
  <path class="st2" d="M53.83,24.07v.46s.04-.01.06-.03l-.06-.43Z"/>
  <path class="st10" d="M53.83,24.07v.46s.04-.01.06-.03l-.06-.43Z"/>
  <path class="st2" d="M91.95,51.85l-.9.62c-.36.25-.56.58-.54.83.14-.09.29-.1.34-.03l.02.03c.05.07-.01.19-.13.29.23.07.59-.02.92-.25l.9-.62c.32-.22.52-.52.54-.76h-.01c-.15.11-.32.13-.37.05l-.02-.03c-.06-.08.02-.23.17-.33l.04-.03c-.23-.1-.61-.02-.97.22Z"/>
  <path class="st5" d="M91.95,51.85l-.9.62c-.36.25-.56.58-.54.83.14-.09.29-.1.34-.03l.02.03c.05.07-.01.19-.13.29.23.07.59-.02.92-.25l.9-.62c.32-.22.52-.52.54-.76h-.01c-.15.11-.32.13-.37.05l-.02-.03c-.06-.08.02-.23.17-.33l.04-.03c-.23-.1-.61-.02-.97.22Z"/>
  <path class="st2" d="M96.25,48.86l-.9.62c-.36.25-.56.58-.54.83.14-.09.29-.1.34-.03l.02.03c.05.07-.01.19-.13.29.23.07.59-.02.92-.25l.9-.62c.15-.1.26-.22.35-.34v-.33c-.08.02-.16.01-.19-.03l-.02-.03c-.06-.08.02-.23.17-.33l.04-.03c-.23-.1-.61-.02-.97.22Z"/>
  <path class="st4" d="M96.25,48.86l-.9.62c-.36.25-.56.58-.54.83.14-.09.29-.1.34-.03l.02.03c.05.07-.01.19-.13.29.23.07.59-.02.92-.25l.9-.62c.15-.1.26-.22.35-.34v-.33c-.08.02-.16.01-.19-.03l-.02-.03c-.06-.08.02-.23.17-.33l.04-.03c-.23-.1-.61-.02-.97.22Z"/>
  <path class="st2" d="M54.37,22.2l-.12-.91c-.04-.33-.21-.6-.42-.7v2.15s0,0,0,0h.04c.1-.02.19.09.21.24v.04c.2-.14.32-.46.27-.82Z"/>
  <path class="st1" d="M54.37,22.2l-.12-.91c-.04-.33-.21-.6-.42-.7v2.15s0,0,0,0h.04c.1-.02.19.09.21.24v.04c.2-.14.32-.46.27-.82Z"/>
  <path class="st2" d="M54.43,31.08c.04.33.21.59.4.69h0c-.02-.16.04-.3.14-.31h.04c.1-.02.19.09.21.24v.04c.2-.14.32-.46.27-.82l-.12-.91c-.05-.36-.24-.64-.47-.72,0,.14-.05.26-.14.27h-.04c-.09.02-.16-.08-.2-.2-.17.15-.27.46-.22.79l.12.91Z"/>
  <path class="st6" d="M54.43,31.08c.04.33.21.59.4.69h0c-.02-.16.04-.3.14-.31h.04c.1-.02.19.09.21.24v.04c.2-.14.32-.46.27-.82l-.12-.91c-.05-.36-.24-.64-.47-.72,0,.14-.05.26-.14.27h-.04c-.09.02-.16-.08-.2-.2-.17.15-.27.46-.22.79l.12.91Z"/>
  <path class="st2" d="M88.42,55.01l-.02-.03c-.06-.08.02-.23.17-.33l.04-.03c-.08-.03-.17-.05-.27-.04,0,.36,0,.72,0,1.09.28-.22.45-.48.48-.7h-.01c-.15.11-.32.13-.37.05Z"/>
  <path class="st9" d="M88.42,55.01l-.02-.03c-.06-.08.02-.23.17-.33l.04-.03c-.08-.03-.17-.05-.27-.04,0,.36,0,.72,0,1.09.28-.22.45-.48.48-.7h-.01c-.15.11-.32.13-.37.05Z"/>
  <path class="st2" d="M62.9,48.86l-.9.62c-.36.25-.56.58-.54.83.14-.09.29-.1.34-.03l.02.03c.05.07-.01.19-.13.29.23.07.59-.02.92-.25l.72-.5v-1.22c-.14.04-.29.11-.44.21Z"/>
  <path class="st17" d="M62.9,48.86l-.9.62c-.36.25-.56.58-.54.83.14-.09.29-.1.34-.03l.02.03c.05.07-.01.19-.13.29.23.07.59-.02.92-.25l.72-.5v-1.22c-.14.04-.29.11-.44.21Z"/>
  <path class="st2" d="M95.92,50.67c-.5.35-1.04.45-1.37.31l-.5.35-.43.3c.03.35-.25.82-.76,1.17l-1.26.87c-.5.35-1.04.45-1.37.31l-.5.35-.43.3c.02.24-.1.52-.34.79l-.66.43c-.04,11.54-.13,25.61-.17,31.14h9.06v-37.21s-.03.03-.04.04l-1.26.87Z"/>
  <path class="st12" d="M95.92,50.67c-.5.35-1.04.45-1.37.31l-.5.35-.43.3c.03.35-.25.82-.76,1.17l-1.26.87c-.5.35-1.04.45-1.37.31l-.5.35-.43.3c.02.24-.1.52-.34.79l-.66.43c-.04,11.54-.13,25.61-.17,31.14h9.06v-37.21s-.03.03-.04.04l-1.26.87Z"/>
  <path class="st2" d="M90,53.65c-.07-.35.21-.86.74-1.23l1.26-.87c.53-.37,1.11-.46,1.42-.27l.41-.28.48-.33c-.07-.35.21-.86.74-1.23l1.26-.87c.31-.21.64-.34.92-.37v-27.75l-20.95,11.19-.47.25-.47-.24-21.01-10.95c.05.12.09.26.11.4l.17,1.28c.07.54-.12,1.01-.44,1.17l.05.42.06.49c.35.08.65.47.72,1.02l.17,1.28c.07.54-.12,1.01-.44,1.17l.05.42.06.49c.35.08.65.47.72,1.02l.17,1.28c.07.54-.12,1.01-.44,1.17l.05.42.06.43-.17.11-.24-.2-.04-.29-.06-.43c-.32-.11-.6-.5-.66-1.01l-.17-1.28c-.07-.51.1-.96.38-1.15l-.07-.5-.06-.43c-.2-.07-.38-.24-.5-.5v27.45l.5-.35c.53-.37,1.11-.46,1.42-.27l.41-.28.48-.33c-.07-.35.21-.86.74-1.23l1.26-.87c.53-.37,1.11-.46,1.42-.27l.41-.28.48-.33c-.07-.35.21-.86.74-1.23l1.26-.87c.13-.09.27-.16.4-.22l.11-9.65.02-1.67,1.46.8,5.53,3.04.52.28v45.81h9.08l.52-45.7v-.65s.6-.26.6-.26l5.69-2.48,1.2-.52.19,1.29c.08.53.08,7.23.06,15.58.31-.09.59-.08.78.03l.41-.28.48-.33Z"/>
  <path class="st15" d="M90,53.65c-.07-.35.21-.86.74-1.23l1.26-.87c.53-.37,1.11-.46,1.42-.27l.41-.28.48-.33c-.07-.35.21-.86.74-1.23l1.26-.87c.31-.21.64-.34.92-.37v-27.75l-20.95,11.19-.47.25-.47-.24-21.01-10.95c.05.12.09.26.11.4l.17,1.28c.07.54-.12,1.01-.44,1.17l.05.42.06.49c.35.08.65.47.72,1.02l.17,1.28c.07.54-.12,1.01-.44,1.17l.05.42.06.49c.35.08.65.47.72,1.02l.17,1.28c.07.54-.12,1.01-.44,1.17l.05.42.06.43-.17.11-.24-.2-.04-.29-.06-.43c-.32-.11-.6-.5-.66-1.01l-.17-1.28c-.07-.51.1-.96.38-1.15l-.07-.5-.06-.43c-.2-.07-.38-.24-.5-.5v27.45l.5-.35c.53-.37,1.11-.46,1.42-.27l.41-.28.48-.33c-.07-.35.21-.86.74-1.23l1.26-.87c.53-.37,1.11-.46,1.42-.27l.41-.28.48-.33c-.07-.35.21-.86.74-1.23l1.26-.87c.13-.09.27-.16.4-.22l.11-9.65.02-1.67,1.46.8,5.53,3.04.52.28v45.81h9.08l.52-45.7v-.65s.6-.26.6-.26l5.69-2.48,1.2-.52.19,1.29c.08.53.08,7.23.06,15.58.31-.09.59-.08.78.03l.41-.28.48-.33Z"/>
  <path class="st2" d="M58.31,53.36l.9-.62c.32-.22.52-.52.55-.76h-.01c-.15.11-.32.13-.37.05l-.02-.03c-.06-.08.02-.23.17-.33l.04-.03c-.23-.1-.61-.02-.97.22l-.9.62c-.36.25-.56.58-.54.83.14-.09.29-.1.34-.03l.02.03c.05.07-.01.19-.13.29.23.07.59-.02.92-.25Z"/>
  <path class="st8" d="M58.31,53.36l.9-.62c.32-.22.52-.52.55-.76h-.01c-.15.11-.32.13-.37.05l-.02-.03c-.06-.08.02-.23.17-.33l.04-.03c-.23-.1-.61-.02-.97.22l-.9.62c-.36.25-.56.58-.54.83.14-.09.29-.1.34-.03l.02.03c.05.07-.01.19-.13.29.23.07.59-.02.92-.25Z"/>
  <path class="st2" d="M97.23,49.75v37.21h-9.06c.04-5.53.13-19.59.17-31.14l-1,.66c-.05,14.1-.17,31.48-.17,31.48h11.07v-39.54l-.29.2c.03.34-.24.78-.71,1.13Z"/>
  <path class="st2" d="M53.83,54.89v-27.45c-.07-.15-.14-.32-.16-.51l-.17-1.28c-.06-.48.08-.91.33-1.12v-.53s-.07-.43-.07-.43c-.32-.11-.6-.5-.66-1.01l-.17-1.28c-.07-.51.1-.96.38-1.15l-.07-.5-.05-.4.11-.21-.48-.25v36.86c.08-.07.15-.15.24-.21l.76-.53Z"/>
  <path class="st2" d="M53.66,19.58l.06.49c.25.06.48.28.61.61l21.01,10.95.47.24.47-.25,20.95-11.19v27.75c.2-.02.37.02.5.1l.41-.28.09-.06v-29.17l-22.42,11.97-22.21-11.57.05.41Z"/>
  <path class="st2" d="M87.69,54.54c.21-.15.43-.24.64-.3.03-8.36.02-15.05-.06-15.58l-.19-1.29-1.2.52-5.69,2.48-.59.26v.65s-.53,45.7-.53,45.7h-9.08v-45.81l-.52-.28-5.53-3.04-1.46-.8-.02,1.67-.11,9.65c.37-.16.71-.2.95-.1l.05-.04.11-9.51,5.53,3.04v46.22h11.07l.53-46.68,5.69-2.48c.05.31.06,3.19.06,7.42,0,2.48,0,5.42-.02,8.57l.36-.25Z"/>
  <path class="st2" d="M53.83,76.76v-20.05c-.36.22-.71.32-1,.3v20.49c.08-.07.15-.15.24-.21l.76-.53Z"/>
  <path class="st2" d="M64.09,71.44c-.08.08-.16.16-.27.23l-.74.51-.17,14.78h-9.08v-8.37c-.36.22-.71.32-1,.3v9.08h11.07l.19-16.52Z"/>
  <path class="st2" d="M53.78,20.57c0,.14-.05.26-.14.27h-.04c-.09.02-.16-.08-.2-.2-.17.15-.27.46-.22.79l.12.91c.04.33.21.59.4.69h0c-.02-.16.04-.28.14-.3v-2.15s-.04,0-.06-.02Z"/>
  <path class="st2" d="M63.1,70.35c.36-.21.72-.31,1-.27l.23-20.8c-.13.18-.3.36-.52.52l-.49.34-.23,20.22Z"/>
  <path class="st2" d="M97.42,48.98h-.01c-.06.05-.12.07-.18.08v.33c.11-.14.18-.29.19-.42Z"/>
  <path class="st2" d="M63.35,48.65v1.22s.17-.13.17-.13c.32-.22.52-.52.55-.76h-.01c-.15.11-.32.13-.37.05l-.02-.03c-.06-.08.02-.23.17-.33l.04-.03c-.13-.06-.31-.05-.51.01Z"/>
  <path class="st2" d="M53.38,77.34c-.32.22-.52.52-.55.76v.05s0,.01,0,.02c.14-.09.29-.1.34-.03l.02.03c.05.07-.01.19-.13.29.19.06.47,0,.75-.16v-1.29l-.45.31Z"/>
  <path class="st2" d="M53.75,25.8l.09.68v-1.28c-.08.16-.12.38-.09.61Z"/>
  <path class="st2" d="M53.38,55.46c-.32.22-.52.52-.55.76v.05s0,.01,0,.02c.14-.09.29-.1.34-.03l.02.03c.05.07-.01.19-.13.29.19.06.47,0,.75-.16v-1.29l-.45.31Z"/>
  <path class="st2" d="M63.52,71.62c.32-.22.52-.52.55-.76h-.01c-.15.11-.32.13-.37.05l-.02-.03c-.06-.08.02-.23.17-.33l.04-.03c-.19-.08-.47-.04-.76.11v1.29s.42-.3.42-.3Z"/>
  <path class="st2" d="M87.64,54.84l-.31.21c0,.43,0,.87,0,1.31.01,0,.02-.01.04-.02l.9-.62s.04-.04.07-.06c0-.37,0-.73,0-1.09-.21.01-.46.1-.7.26Z"/>
  <path class="st19" d="M85.44,57.3l-.28.2c.13.27.5.52.97.64l.27-.19c-.42-.12-.72-.38-.68-.63.02-.14.15-.25.32-.32-.04,0-.07-.03-.1-.04l-.5.35Z"/>
  <path class="st19" d="M102.97,45.05c.59.05,1.08-.12,1.16-.46.09-.41-.43-.88-1.17-1.06l-.72-.17v.22s.46.11.46.11c.53.12.9.46.84.75-.03.13-.15.22-.31.28,0,.08-.05.18-.16.26l-.09.06Z"/>
  <path class="st19" d="M102.23,44.91h0s.17.04.17.04l.27-.18c-.07,0-.14,0-.21-.03l-.23-.05h0s0,.22,0,.22Z"/>
  <polygon class="st19" points="85.44 57.3 85.21 56.97 85.1 57.05 85.1 57.54 85.16 57.5 85.44 57.3"/>
  <path class="st19" d="M86.2,56.29c-.02-.25.18-.58.54-.83l.59-.41.31-.21c.24-.16.48-.25.7-.26.11,0,.2,0,.27.04l.5-.35c-.19-.11-.46-.12-.78-.03-.21.06-.43.15-.64.3l-.36.25-.9.62c-.53.37-.81.87-.74,1.23l.48-.33s.02,0,.03-.01Z"/>
  <path class="st19" d="M88.33,55.83l.66-.43c.24-.27.36-.56.34-.79l-.52.36c-.02.22-.2.48-.48.7-.02.02-.04.04-.07.06l-.9.62s-.02.01-.04.02c-.32.21-.66.29-.89.23-.02.01-.02.03-.04.04l-.46.32s.06.03.1.04c.15.04.34.02.55-.03l.74-.48,1-.66Z"/>
  <path class="st19" d="M89.52,53.98l-.41.28-.5.35-.04.03c-.15.1-.22.25-.17.33l.02.03c.06.08.22.06.37-.04h.01s.52-.37.52-.37l.43-.3-.23-.33Z"/>
  <path class="st19" d="M85.44,57.3l.5-.35.46-.32s.02-.03.04-.04c.11-.1.18-.22.13-.29l-.02-.03c-.05-.08-.2-.06-.34.03-.01,0-.02,0-.03.01l-.48.33-.48.33.23.33Z"/>
  <path class="st19" d="M90.51,53.3c-.02-.25.18-.58.54-.83l.9-.62c.35-.25.74-.32.97-.22l.5-.35c-.31-.19-.88-.1-1.42.27l-1.26.87c-.53.37-.81.87-.74,1.23l.48-.33s.02,0,.03-.01Z"/>
  <path class="st19" d="M92.57,52.73l-.9.62c-.33.23-.69.32-.92.25-.02.01-.02.03-.04.04l-.46.32c.32.15.86.04,1.37-.31l1.26-.87c.5-.35.79-.82.76-1.17l-.52.36c-.02.24-.22.53-.54.76Z"/>
  <path class="st19" d="M93.42,51.27l-.5.35-.04.03c-.15.1-.22.25-.17.33l.02.03c.06.08.22.06.37-.04h.01s.52-.37.52-.37l.43-.3-.23-.33-.41.28Z"/>
  <path class="st19" d="M90.75,53.6c.11-.1.18-.22.13-.29l-.02-.03c-.05-.08-.2-.06-.34.03-.01,0-.02,0-.03.01l-.48.33-.48.33.23.33.5-.35.46-.32s.02-.03.04-.04Z"/>
  <path class="st19" d="M96.88,49.74l-.9.62c-.33.23-.69.32-.92.25-.02.01-.02.03-.04.04l-.46.32c.32.15.86.04,1.37-.31l1.26-.87s.03-.03.04-.04c.47-.35.74-.79.71-1.13l-.52.36c-.01.13-.09.27-.19.42-.09.12-.2.24-.35.34Z"/>
  <path class="st19" d="M97.23,48.18c-.28.03-.61.16-.92.37l-1.26.87c-.53.37-.81.87-.74,1.23l.48-.33s.02,0,.03-.01c-.02-.25.18-.58.54-.83l.9-.62c.35-.25.74-.32.97-.22l.5-.35c-.13-.08-.29-.12-.5-.1Z"/>
  <path class="st19" d="M98.13,48l-.41.28-.5.35-.04.03c-.15.1-.22.25-.17.33l.02.03s.11.05.19.03c.06-.01.12-.03.18-.07h.01s.52-.37.52-.37l.29-.2.14-.1-.23-.33Z"/>
  <path class="st19" d="M94.06,51.32l.5-.35.46-.32s.02-.03.04-.04c.11-.1.18-.22.13-.29l-.02-.03c-.05-.08-.2-.06-.34.03-.01,0-.02,0-.03.01l-.48.33-.48.33.23.33Z"/>
  <path class="st19" d="M101.73,45.99c-.02.24-.22.53-.54.76l-.9.62c-.33.23-.69.32-.92.25-.02.01-.02.03-.04.04l-.46.32c.32.15.86.04,1.37-.31l1.26-.87c.41-.29.67-.65.74-.97.02-.07.03-.14.02-.2l-.52.36Z"/>
  <path class="st19" d="M99.12,47.32c-.02-.25.18-.58.54-.83l.9-.62c.35-.25.74-.32.97-.22l.38-.26-.04-.06.11-.07c-.32-.14-.86-.03-1.35.31l-1.26.87c-.53.37-.81.87-.74,1.23l.48-.33s.02,0,.03-.01Z"/>
  <path class="st19" d="M102.1,45.65l-.19-.27-.38.26-.04.03c-.15.1-.22.25-.17.33l.02.03c.06.08.22.06.37-.04h.01s.52-.37.52-.37l.43-.3-.04-.06-.54.37Z"/>
  <path class="st19" d="M99.36,47.62c.11-.1.18-.22.13-.29l-.02-.03c-.05-.08-.2-.06-.34.03-.01,0-.02,0-.03.01l-.48.33-.39.27-.09.06.23.33.5-.35.46-.32s.02-.03.04-.04Z"/>
  <path class="st19" d="M102.23,45.07h0s-.26.18-.26.18l-.11.07.04.06.19.27.54-.37.33-.23.09-.06c.12-.08.16-.18.16-.26,0-.02.01-.05,0-.07l-.02-.03c-.06-.08-.22-.06-.37.04l-.16.11-.27.18-.17.12Z"/>
  <path class="st19" d="M47.78,60.29l-.28.2c.13.27.5.52.97.64l.27-.19c-.42-.12-.72-.38-.68-.63.02-.14.15-.25.32-.32-.04,0-.07-.03-.1-.04l-.5.35Z"/>
  <path class="st19" d="M65.3,48.04c.59.05,1.08-.12,1.16-.46.09-.41-.43-.88-1.17-1.06l-.72-.17v.22s.46.11.46.11c.53.12.9.46.84.75-.03.13-.15.22-.31.28,0,.08-.05.18-.16.26l-.09.06Z"/>
  <path class="st19" d="M64.79,47.73l-.23-.05v.22s.17.04.17.04l.27-.18c-.07,0-.14,0-.21-.03Z"/>
  <polygon class="st19" points="47.55 59.96 47.43 60.04 47.43 60.53 47.49 60.49 47.78 60.29 47.55 59.96"/>
  <path class="st19" d="M48.53,59.29c-.01-.19.1-.41.3-.62.07-.07.15-.14.24-.21l.9-.62c.35-.25.74-.32.97-.22l.5-.35c-.31-.19-.88-.1-1.42.27l-1.19.83-.07.05c-.53.37-.81.87-.74,1.23l.48-.33s.02,0,.03-.01Z"/>
  <path class="st19" d="M51.32,58.39c.24-.27.36-.56.34-.79l-.52.36c-.02.24-.22.53-.55.76l-.9.62c-.3.21-.63.29-.86.25-.02,0-.04,0-.06,0-.02.01-.02.03-.04.04l-.46.32s.06.03.1.04c.13.03.29.03.46,0,.03,0,.06-.02.09-.02l2.4-1.57Z"/>
  <path class="st19" d="M51.44,57.26l-.5.35-.04.03c-.15.1-.22.25-.17.33l.02.03c.06.08.22.06.37-.04h.01s.52-.37.52-.37l.43-.3-.23-.33-.41.28Z"/>
  <path class="st19" d="M47.78,60.29l.5-.35.46-.32s.02-.03.04-.04c.03-.02.04-.04.06-.07.07-.08.1-.17.06-.22l-.02-.03s-.03,0-.04-.01c-.07-.04-.18-.03-.3.04-.01,0-.02,0-.03.01l-.48.33-.48.33.23.33Z"/>
  <path class="st19" d="M52.84,56.3s0-.01,0-.02c0-.02,0-.03,0-.05.02-.24.22-.54.55-.76l.45-.31.45-.31c.35-.25.74-.32.97-.22l.5-.35c-.31-.19-.88-.1-1.42.27l-.5.35-.76.53c-.09.06-.16.14-.24.21-.37.34-.56.72-.5,1.02l.48-.33s.02,0,.03-.01Z"/>
  <path class="st19" d="M53.83,56.71s.08-.04.12-.06l1.26-.87c.5-.35.79-.82.76-1.17l-.52.36c-.02.24-.22.53-.54.76l-.9.62c-.06.04-.11.06-.17.09-.28.15-.56.21-.75.16-.02.01-.02.03-.04.04l-.46.32c.07.03.16.05.25.05.29.02.64-.08,1-.3Z"/>
  <path class="st19" d="M56.16,53.98l-.41.28-.5.35-.04.03c-.15.1-.22.25-.17.33l.02.03c.06.08.22.06.37-.04h.01s.52-.37.52-.37l.43-.3-.23-.33Z"/>
  <path class="st19" d="M53.04,56.64s.02-.03.04-.04c.11-.1.18-.22.13-.29l-.02-.03c-.05-.08-.2-.06-.34.03-.01,0-.02,0-.03.01l-.48.33-.48.33.23.33.5-.35.46-.32Z"/>
  <path class="st19" d="M57.15,53.31c-.02-.25.18-.58.54-.83l.9-.62c.35-.25.74-.32.97-.22l.5-.35c-.31-.19-.88-.1-1.42.27l-1.26.87c-.53.37-.81.87-.74,1.23l.48-.33s.02,0,.03-.01Z"/>
  <path class="st19" d="M59.21,52.73l-.9.62c-.33.23-.69.32-.92.25-.02.01-.02.03-.04.04l-.46.32c.32.15.86.04,1.37-.31l1.26-.87c.5-.35.79-.82.76-1.17l-.52.36c-.02.24-.22.53-.55.76Z"/>
  <path class="st19" d="M59.51,51.66c-.15.1-.22.25-.17.33l.02.03c.06.08.22.06.37-.04h.01s.52-.37.52-.37l.43-.3-.23-.33-.41.28-.5.35-.04.03Z"/>
  <path class="st19" d="M56.89,53.96l.46-.32s.02-.03.04-.04c.11-.1.18-.22.13-.29l-.02-.03c-.05-.08-.2-.06-.34.03-.01,0-.02,0-.03.01l-.48.33-.48.33.23.33.5-.35Z"/>
  <path class="st19" d="M64.06,48.99c-.02.24-.22.53-.55.76l-.18.13-.72.5c-.33.23-.69.32-.92.25-.02.01-.02.03-.04.04l-.46.32c.32.15.86.04,1.37-.31l.77-.53.49-.34c.22-.15.39-.33.52-.52,0,0,0,0,0,0,.17-.23.25-.45.24-.65l-.52.36Z"/>
  <path class="st19" d="M61.69,49.43c-.53.37-.81.87-.74,1.23l.48-.33s.02,0,.03-.01c-.02-.25.18-.58.54-.83l.9-.62c.15-.11.31-.17.45-.21.2-.06.38-.07.51-.01l.38-.26-.04-.06.11-.07c-.24-.1-.58-.07-.95.1-.13.06-.27.13-.4.22l-1.26.87Z"/>
  <path class="st19" d="M64.43,48.64l-.19-.27-.38.26-.04.03c-.15.1-.22.25-.17.33l.02.03c.06.08.22.06.37-.04h.01s.52-.37.52-.37l.43-.3-.04-.06-.54.37Z"/>
  <path class="st19" d="M61.8,50.29c-.05-.08-.2-.06-.34.03-.01,0-.02,0-.03.01l-.48.33-.48.33.23.33.5-.35.46-.32s.02-.03.04-.04c.11-.1.18-.22.13-.29l-.02-.03Z"/>
  <path class="st19" d="M64.3,48.24l-.11.07.04.06.19.27.54-.37.33-.23.09-.06c.12-.08.16-.18.16-.26,0-.02.01-.05,0-.07l-.02-.03c-.06-.08-.22-.06-.37.04l-.16.11-.27.18-.38.26h0s-.05.04-.05.04Z"/>
  <path class="st19" d="M47.78,82.17l-.28.2c.13.27.5.52.97.64l.27-.19c-.42-.12-.72-.38-.68-.63.02-.14.15-.25.32-.32-.04,0-.07-.03-.1-.04l-.5.35Z"/>
  <path class="st19" d="M64.79,69.61l-.23-.05v.22s.17.04.17.04l.27-.18c-.07,0-.14,0-.21-.03Z"/>
  <path class="st19" d="M65.3,69.92c.59.05,1.08-.12,1.16-.46.09-.41-.43-.88-1.17-1.06l-.72-.17v.22s.46.11.46.11c.53.12.9.46.84.75-.03.13-.15.22-.31.28,0,.08-.05.18-.16.26l-.09.06Z"/>
  <polygon class="st19" points="47.55 81.84 47.43 81.92 47.43 82.41 47.49 82.37 47.78 82.17 47.55 81.84"/>
  <path class="st19" d="M48.53,81.17c-.01-.19.1-.41.3-.62.07-.07.15-.14.24-.21l.9-.62c.35-.25.74-.32.97-.22l.5-.35c-.31-.19-.88-.1-1.42.27l-1.19.83-.07.05c-.53.37-.81.87-.74,1.23l.48-.33s.02,0,.03-.01Z"/>
  <path class="st19" d="M51.32,80.27c.24-.27.36-.56.34-.79l-.52.36c-.02.24-.22.53-.55.76l-.9.62c-.3.21-.63.29-.86.25-.02,0-.04,0-.06,0-.02.01-.02.03-.04.04l-.46.32s.06.03.1.04c.13.03.29.03.46,0,.03,0,.06-.02.09-.02l2.4-1.57Z"/>
  <path class="st19" d="M51.44,79.14l-.5.35-.04.03c-.15.1-.22.25-.17.33l.02.03c.06.08.22.06.37-.04h.01s.52-.37.52-.37l.43-.3-.23-.33-.41.28Z"/>
  <path class="st19" d="M47.78,82.17l.5-.35.46-.32s.02-.03.04-.04c.03-.02.04-.04.06-.07.07-.08.1-.17.06-.22l-.02-.03s-.03,0-.04-.01c-.07-.04-.18-.03-.3.04-.01,0-.02,0-.03.01l-.48.33-.48.33.23.33Z"/>
  <path class="st19" d="M52.84,78.18s0-.01,0-.02c0-.02,0-.03,0-.05.02-.24.22-.54.55-.76l.45-.31.45-.31c.35-.25.74-.32.97-.22l.5-.35c-.31-.19-.88-.1-1.42.27l-.5.35-.76.53c-.09.06-.16.14-.24.21-.37.34-.56.72-.5,1.02l.48-.33s.02,0,.03-.01Z"/>
  <path class="st19" d="M53.83,78.59s.08-.04.12-.06l1.26-.87c.5-.35.79-.82.76-1.17l-.52.36c-.02.24-.22.53-.54.76l-.9.62c-.06.04-.11.06-.17.09-.28.15-.56.21-.75.16-.02.01-.02.03-.04.04l-.46.32c.07.03.16.05.25.05.29.02.64-.08,1-.3Z"/>
  <path class="st19" d="M56.16,75.86l-.41.28-.5.35-.04.03c-.15.1-.22.25-.17.33l.02.03c.06.08.22.06.37-.04h.01s.52-.37.52-.37l.43-.3-.23-.33Z"/>
  <path class="st19" d="M53.04,78.52s.02-.03.04-.04c.11-.1.18-.22.13-.29l-.02-.03c-.05-.08-.2-.06-.34.03-.01,0-.02,0-.03.01l-.48.33-.48.33.23.33.5-.35.46-.32Z"/>
  <path class="st19" d="M57.15,75.19c-.02-.25.18-.58.54-.83l.9-.62c.35-.25.74-.32.97-.22l.5-.35c-.31-.19-.88-.1-1.42.27l-1.26.87c-.53.37-.81.87-.74,1.23l.48-.33s.02,0,.03-.01Z"/>
  <path class="st19" d="M59.21,74.61l-.9.62c-.33.23-.69.32-.92.25-.02.01-.02.03-.04.04l-.46.32c.32.15.86.04,1.37-.31l1.26-.87c.5-.35.79-.82.76-1.17l-.52.36c-.02.24-.22.53-.55.76Z"/>
  <path class="st19" d="M59.51,73.53c-.15.1-.22.25-.17.33l.02.03c.06.08.22.06.37-.04h.01s.52-.37.52-.37l.43-.3-.23-.33-.41.28-.5.35-.04.03Z"/>
  <path class="st19" d="M56.89,75.84l.46-.32s.02-.03.04-.04c.11-.1.18-.22.13-.29l-.02-.03c-.05-.08-.2-.06-.34.03-.01,0-.02,0-.03.01l-.48.33-.48.33.23.33.5-.35Z"/>
  <path class="st19" d="M64.06,70.86c-.02.24-.22.53-.55.76l-.43.3-.47.32c-.33.23-.69.32-.92.25-.02.01-.02.03-.04.04l-.46.32c.32.15.86.04,1.37-.31l.52-.36.74-.51c.1-.07.18-.15.27-.23,0,0,0,0,0,0,.33-.31.51-.65.49-.93l-.52.36Z"/>
  <path class="st19" d="M63.1,70.35c-.05.03-.1.05-.15.08l-1.26.87c-.53.37-.81.87-.74,1.23l.48-.33s.02,0,.03-.01c-.02-.25.18-.58.54-.83l.9-.62c.07-.05.14-.08.21-.11.29-.15.57-.19.76-.11l.38-.26-.04-.06.11-.07c-.06-.02-.12-.03-.19-.04,0,0,0,0,0,0-.28-.03-.64.06-1,.27Z"/>
  <path class="st19" d="M64.43,70.52l-.19-.27-.38.26-.04.03c-.15.1-.22.25-.17.33l.02.03c.06.08.22.06.37-.04h.01s.52-.37.52-.37l.43-.3-.04-.06-.54.37Z"/>
  <path class="st19" d="M60.7,73.2l.5-.35.46-.32s.02-.03.04-.04c.11-.1.18-.22.13-.29l-.02-.03c-.05-.08-.2-.06-.34.03-.01,0-.02,0-.03.01l-.48.33-.48.33.23.33Z"/>
  <path class="st19" d="M64.24,70.25l.19.27.54-.37.33-.23.09-.06c.12-.08.16-.18.16-.26,0-.02.01-.05,0-.07l-.02-.03c-.06-.08-.22-.06-.37.04l-.16.11-.27.18-.17.12h0l-.26.18-.11.07.04.06Z"/>
  <polygon class="st19" points="53.6 19.16 53.6 19.16 53.6 19.16 53.6 19.16"/>
  <polygon class="st19" points="53.21 19.23 53.26 19.63 53.66 19.58 53.6 19.17 53.6 19.16 53.6 19.16 53.44 18.77 53.31 19.02 53.21 19.23"/>
  <path class="st19" d="M53.78,20.57s.04,0,.06.02c.2.1.37.37.42.7l.12.91c.05.36-.07.68-.27.82l.07.51c.31-.17.51-.63.44-1.17l-.17-1.28c-.02-.15-.06-.28-.11-.4-.13-.34-.36-.56-.61-.61l.06.48s0,.02,0,.03Z"/>
  <path class="st19" d="M53.3,22.35l-.12-.91c-.04-.33.05-.64.22-.79,0-.02-.02-.03-.02-.05l-.06-.46c-.28.19-.45.64-.38,1.15l.17,1.28c.07.51.34.9.66,1.01l-.07-.52c-.2-.11-.36-.37-.4-.69Z"/>
  <path class="st19" d="M54.22,23.94l-.05-.42-.07-.51v-.04c-.03-.15-.12-.26-.22-.25h-.04s0,.01,0,.01c-.09.02-.15.15-.14.29h0s.07.54.07.54l.06.43.4-.05Z"/>
  <path class="st19" d="M53.38,20.6s.01.03.02.05c.03.12.11.22.2.2h.04c.09-.02.15-.14.14-.28,0-.01,0-.02,0-.03l-.06-.48-.06-.49-.4.05.07.5.06.46Z"/>
  <path class="st19" d="M54.35,24.94c.23.08.42.35.47.72l.12.91c.05.36-.07.68-.27.82l.07.51c.31-.17.51-.63.44-1.17l-.17-1.28c-.07-.54-.38-.94-.72-1.02l.06.48s0,.02,0,.03Z"/>
  <path class="st19" d="M54.34,27.93l-.07-.52c-.2-.11-.36-.37-.4-.69l-.03-.24-.09-.68c-.03-.23,0-.45.09-.61.04-.07.08-.14.14-.18,0-.02-.02-.03-.02-.05l-.06-.46s-.04.01-.06.03c-.25.21-.39.64-.33,1.12l.17,1.28c.02.19.09.36.16.51.12.25.3.43.5.5Z"/>
  <path class="st19" d="M54.67,27.34c-.02-.15-.12-.26-.21-.25h-.04c-.1.02-.16.15-.14.3h0s.07.54.07.54l.06.43.4-.05-.05-.42-.07-.51v-.04Z"/>
  <path class="st19" d="M53.95,24.97s.01.03.02.05c.03.12.11.22.2.2h.04c.09-.02.15-.14.14-.28,0-.01,0-.02,0-.03l-.06-.48-.06-.49-.4.05v.07s.07.43.07.43l.06.46Z"/>
  <path class="st19" d="M54.91,29.31c.23.08.42.35.47.72l.12.91c.05.36-.07.68-.27.82l.07.51c.31-.17.51-.63.44-1.17l-.17-1.28c-.07-.54-.38-.94-.72-1.02l.06.48s0,.02,0,.03Z"/>
  <path class="st19" d="M54.43,31.08l-.12-.91c-.04-.33.05-.64.22-.79,0-.02-.02-.03-.02-.05l-.06-.46c-.28.19-.45.64-.38,1.15l.17,1.28c.07.51.34.9.66,1.01l-.07-.52c-.2-.11-.36-.37-.4-.69Z"/>
  <path class="st19" d="M55.23,31.71c-.02-.15-.12-.26-.21-.25h-.04c-.1.02-.16.15-.14.3h0s.07.54.07.54l.06.43.4-.05-.05-.42-.07-.51v-.04Z"/>
  <path class="st19" d="M54.46,28.87l.06.46s.01.03.02.05c.03.12.11.22.2.2h.04c.09-.02.15-.14.14-.28,0-.01,0-.02,0-.03l-.06-.48-.06-.49-.4.05.07.5Z"/>
  <polygon class="st19" points="55 33.02 55.24 33.22 55.42 33.11 55.36 32.68 54.96 32.73 55 33.02"/>
</svg>